# xmcd CD database file
#
# Track frame offsets:
#	150
#	20115
#	41862
#
# Disc length: 822 seconds
#
# Revision: 0
# Processed by: cddbd v1.5.1PL0 Copyright (c) Steve Scherf et al.
# Submitted via: CDex 1.51
#
DISCID=24033403
DTITLE=FEEL - VOICE
DYEAR=1999
DGENRE=JPop
TTITLE0=VOICE
TTITLE1=GET LOST
TTITLE2=VOICE off vocal version
EXTD=YEAR: 1999
EXTT0=
EXTT1=
EXTT2=
PLAYORDER=
